<?xml version="1.0" encoding="iso-8859-1"?>
<!-- Generator: Adobe Illustrator 19.0.0, SVG Export Plug-In . SVG Version: 6.00 Build 0)  -->
<svg version="1.1" id="Layer_1" xmlns="http://www.w3.org/2000/svg" xmlns:xlink="http://www.w3.org/1999/xlink" x="0px" y="0px"
	 viewBox="0 0 512 512" style="enable-background:new 0 0 512 512;" xml:space="preserve">
<path style="fill:#FB5858;" d="M345.441,98.236H166.558c-9.379,0-16.983-7.604-16.983-16.983s7.604-16.983,16.983-16.983h178.884
	c9.379,0,16.983,7.604,16.983,16.983S354.82,98.236,345.441,98.236z"/>
<path style="fill:#FF835D;" d="M254.867,98.236h-88.31c-9.379,0-16.983-7.604-16.983-16.983s7.604-16.983,16.983-16.983h88.31
	V98.236z"/>
<path style="fill:#FB5858;" d="M345.441,156.775H166.558c-9.379,0-16.983-7.604-16.983-16.983c0-9.379,7.604-16.983,16.983-16.983
	h178.884c9.379,0,16.983,7.604,16.983,16.983C362.424,149.171,354.82,156.775,345.441,156.775z"/>
<path style="fill:#FF835D;" d="M254.867,156.775h-88.31c-9.379,0-16.983-7.604-16.983-16.983c0-9.379,7.604-16.983,16.983-16.983
	h88.31V156.775z"/>
<path style="fill:#2C6991;" d="M345.441,41.625c-9.379,0-16.983,7.604-16.983,16.983v216.639H183.54V58.608
	c0-9.379-7.604-16.983-16.983-16.983s-16.983,7.604-16.983,16.983v226.829v36.971v110.212c0,9.379,7.604,16.983,16.983,16.983
	s16.983-7.604,16.983-16.983v-92.838h144.918v92.838c0,9.379,7.604,16.983,16.983,16.983c9.379,0,16.983-7.604,16.983-16.983
	V322.408v-36.971V58.608C362.424,49.229,354.82,41.625,345.441,41.625z"/>
<path style="fill:#528FB3;" d="M255.999,275.247H183.54V58.608c0-9.379-7.604-16.983-16.983-16.983s-16.983,7.604-16.983,16.983
	v226.829v36.971v110.212c0,9.379,7.604,16.983,16.983,16.983s16.983-7.604,16.983-16.983v-92.838h72.459V275.247z"/>
<path style="fill:#2C6991;" d="M16.983,470.375C7.604,470.375,0,462.771,0,453.392V211.795c0-9.379,7.604-16.983,16.983-16.983
	s16.983,7.604,16.983,16.983v241.598C33.965,462.772,26.362,470.375,16.983,470.375z"/>
<path style="fill:#528FB3;" d="M16.983,470.375C7.604,470.375,0,462.771,0,453.392V211.795c0-9.379,7.604-16.983,16.983-16.983
	V470.375z"/>
<path style="fill:#2C6991;" d="M495.017,470.375c-9.379,0-16.983-7.604-16.983-16.983V211.795c0-9.379,7.604-16.983,16.983-16.983
	S512,202.416,512,211.795v241.598C512,462.772,504.396,470.375,495.017,470.375z"/>
<path style="fill:#528FB3;" d="M495.017,470.375c-9.379,0-16.983-7.604-16.983-16.983V211.795c0-9.379,7.604-16.983,16.983-16.983
	V470.375z"/>
<path style="fill:#8F5543;" d="M511.871,211.845c0-9.379-7.604-16.983-16.983-16.983H17.111c-9.379,0-16.983,7.604-16.983,16.983
	v57.741c0,9.379,7.604,16.983,16.983,16.983h477.778c9.379,0,16.983-7.604,16.983-16.983V211.845z"/>
<path style="fill:#C97E67;" d="M255.999,194.863H17.111c-9.379,0-16.983,7.604-16.983,16.983v57.741
	c0,9.379,7.604,16.983,16.983,16.983h238.889V194.863z"/>
<g>
</g>
<g>
</g>
<g>
</g>
<g>
</g>
<g>
</g>
<g>
</g>
<g>
</g>
<g>
</g>
<g>
</g>
<g>
</g>
<g>
</g>
<g>
</g>
<g>
</g>
<g>
</g>
<g>
</g>
</svg>
